<?xml version="1.0" encoding="UTF-8" standalone="no"?>
<!DOCTYPE svg PUBLIC "-//W3C//DTD SVG 1.1//EN" "http://www.w3.org/Graphics/SVG/1.1/DTD/svg11.dtd">
<svg width="100%" height="100%" viewBox="0 0 580 190" version="1.1" xmlns="http://www.w3.org/2000/svg" xmlns:xlink="http://www.w3.org/1999/xlink" xml:space="preserve" xmlns:serif="http://www.serif.com/" style="fill-rule:evenodd;clip-rule:evenodd;stroke-linejoin:round;stroke-miterlimit:2;">
    <g transform="matrix(3.5865,0,0,3.5865,-262.333,-270.102)">
        <g>
            <g transform="matrix(21,0,0,21,125.111,109.524)">
                <path d="M0.406,0.011C0.369,0.011 0.333,0.006 0.299,-0.004C0.264,-0.014 0.232,-0.029 0.202,-0.049C0.172,-0.069 0.146,-0.093 0.124,-0.121C0.101,-0.15 0.084,-0.184 0.071,-0.224C0.058,-0.263 0.052,-0.306 0.052,-0.353C0.052,-0.41 0.061,-0.462 0.08,-0.51C0.099,-0.557 0.124,-0.596 0.156,-0.627C0.189,-0.658 0.225,-0.682 0.267,-0.699C0.308,-0.716 0.352,-0.724 0.398,-0.724C0.49,-0.724 0.567,-0.699 0.63,-0.648L0.586,-0.571C0.533,-0.609 0.473,-0.628 0.407,-0.628C0.362,-0.628 0.322,-0.616 0.286,-0.593C0.25,-0.57 0.221,-0.537 0.201,-0.496C0.18,-0.454 0.17,-0.407 0.17,-0.354C0.17,-0.272 0.193,-0.207 0.238,-0.158C0.283,-0.11 0.341,-0.085 0.412,-0.085C0.482,-0.085 0.549,-0.109 0.61,-0.157L0.648,-0.068C0.58,-0.015 0.499,0.011 0.406,0.011Z" style="fill:#047680;fill-rule:nonzero;"/>
            </g>
            <g transform="matrix(21,0,0,21,139.475,109.524)">
                <path d="M0.082,-0L0.082,-0.376C0.082,-0.39 0.081,-0.407 0.08,-0.428C0.079,-0.449 0.077,-0.466 0.076,-0.48L0.074,-0.501L0.19,-0.501L0.19,-0.43C0.227,-0.486 0.269,-0.514 0.318,-0.514C0.335,-0.514 0.352,-0.511 0.369,-0.506L0.369,-0.41C0.35,-0.417 0.331,-0.42 0.311,-0.42C0.275,-0.42 0.246,-0.408 0.225,-0.384C0.203,-0.36 0.192,-0.326 0.192,-0.282L0.192,-0L0.082,-0Z" style="fill:#047680;fill-rule:nonzero;"/>
            </g>
            <g transform="matrix(21,0,0,21,147.371,109.524)">
                <path d="M0.115,0.215L0.069,0.141C0.114,0.125 0.148,0.106 0.171,0.086C0.195,0.065 0.211,0.042 0.219,0.015L0.226,-0.009L0.017,-0.501L0.13,-0.501L0.279,-0.126L0.412,-0.501L0.522,-0.501L0.319,0.027C0.3,0.076 0.273,0.117 0.237,0.148C0.201,0.18 0.161,0.202 0.115,0.215Z" style="fill:#047680;fill-rule:nonzero;"/>
            </g>
            <g transform="matrix(21,0,0,21,158.627,109.524)">
                <path d="M0.32,-0.078C0.365,-0.078 0.398,-0.094 0.42,-0.126C0.443,-0.159 0.454,-0.201 0.454,-0.252C0.454,-0.303 0.443,-0.345 0.42,-0.377C0.397,-0.409 0.364,-0.425 0.321,-0.425C0.277,-0.425 0.243,-0.409 0.22,-0.376C0.196,-0.344 0.185,-0.302 0.185,-0.25C0.185,-0.199 0.196,-0.158 0.219,-0.126C0.242,-0.094 0.276,-0.078 0.32,-0.078ZM0.081,0.198L0.081,-0.343C0.081,-0.362 0.079,-0.415 0.074,-0.501L0.189,-0.501L0.189,-0.423C0.196,-0.445 0.214,-0.466 0.243,-0.485C0.273,-0.504 0.308,-0.514 0.347,-0.514C0.392,-0.514 0.431,-0.502 0.465,-0.479C0.499,-0.455 0.524,-0.424 0.542,-0.386C0.56,-0.347 0.568,-0.304 0.568,-0.256C0.568,-0.208 0.56,-0.164 0.542,-0.124C0.524,-0.084 0.498,-0.051 0.464,-0.026C0.429,-0.001 0.389,0.011 0.343,0.011C0.305,0.011 0.271,0.002 0.241,-0.016C0.212,-0.035 0.195,-0.054 0.189,-0.073L0.189,0.198L0.081,0.198Z" style="fill:#047680;fill-rule:nonzero;"/>
            </g>
            <g transform="matrix(21,0,0,21,171.416,109.524)">
                <path d="M0.358,-0L0.312,-0C0.276,-0 0.246,-0.003 0.223,-0.007C0.2,-0.012 0.18,-0.021 0.162,-0.033C0.144,-0.046 0.131,-0.064 0.123,-0.088C0.115,-0.112 0.111,-0.142 0.111,-0.18L0.111,-0.428L0.011,-0.428L0.011,-0.501L0.114,-0.501L0.114,-0.623L0.22,-0.655L0.22,-0.501L0.356,-0.501L0.356,-0.428L0.22,-0.428L0.22,-0.173C0.22,-0.153 0.222,-0.137 0.225,-0.126C0.229,-0.115 0.236,-0.106 0.248,-0.099C0.259,-0.093 0.273,-0.089 0.289,-0.087C0.305,-0.085 0.328,-0.084 0.358,-0.084L0.358,-0Z" style="fill:#047680;fill-rule:nonzero;"/>
            </g>
            <g transform="matrix(21,0,0,21,179.001,109.524)">
                <path d="M0.313,0.011C0.271,0.011 0.233,0.004 0.199,-0.009C0.165,-0.023 0.138,-0.042 0.116,-0.065C0.095,-0.089 0.079,-0.117 0.068,-0.148C0.056,-0.18 0.051,-0.214 0.051,-0.25C0.051,-0.301 0.061,-0.345 0.08,-0.385C0.1,-0.424 0.129,-0.455 0.17,-0.479C0.21,-0.502 0.258,-0.514 0.313,-0.514C0.355,-0.514 0.393,-0.507 0.426,-0.494C0.459,-0.48 0.486,-0.462 0.507,-0.438C0.528,-0.414 0.544,-0.386 0.555,-0.354C0.566,-0.323 0.571,-0.288 0.571,-0.25C0.571,-0.213 0.566,-0.18 0.554,-0.148C0.543,-0.117 0.527,-0.09 0.506,-0.066C0.485,-0.042 0.458,-0.023 0.425,-0.009C0.391,0.004 0.354,0.011 0.313,0.011ZM0.312,-0.078C0.36,-0.078 0.396,-0.094 0.421,-0.126C0.445,-0.158 0.457,-0.2 0.457,-0.251C0.457,-0.303 0.445,-0.345 0.42,-0.377C0.395,-0.409 0.359,-0.425 0.312,-0.425C0.264,-0.425 0.228,-0.409 0.203,-0.377C0.178,-0.345 0.165,-0.303 0.165,-0.251C0.165,-0.2 0.177,-0.158 0.202,-0.126C0.227,-0.094 0.264,-0.078 0.312,-0.078Z" style="fill:#047680;fill-rule:nonzero;"/>
            </g>
            <g transform="matrix(21,0,0,21,191.24,109.524)">
                <path d="M0.095,-0L0.095,-0.711L0.207,-0.711L0.207,-0.096L0.536,-0.096L0.536,-0L0.095,-0Z" style="fill:#047680;fill-rule:nonzero;"/>
            </g>
            <g transform="matrix(21,0,0,21,202.832,109.524)">
                <path d="M0.313,0.011C0.271,0.011 0.233,0.004 0.199,-0.009C0.165,-0.023 0.138,-0.042 0.116,-0.065C0.095,-0.089 0.079,-0.117 0.068,-0.148C0.056,-0.18 0.051,-0.214 0.051,-0.25C0.051,-0.301 0.061,-0.345 0.08,-0.385C0.1,-0.424 0.129,-0.455 0.17,-0.479C0.21,-0.502 0.258,-0.514 0.313,-0.514C0.355,-0.514 0.393,-0.507 0.426,-0.494C0.459,-0.48 0.486,-0.462 0.507,-0.438C0.528,-0.414 0.544,-0.386 0.555,-0.354C0.566,-0.323 0.571,-0.288 0.571,-0.25C0.571,-0.213 0.566,-0.18 0.554,-0.148C0.543,-0.117 0.527,-0.09 0.506,-0.066C0.485,-0.042 0.458,-0.023 0.425,-0.009C0.391,0.004 0.354,0.011 0.313,0.011ZM0.312,-0.078C0.36,-0.078 0.396,-0.094 0.421,-0.126C0.445,-0.158 0.457,-0.2 0.457,-0.251C0.457,-0.303 0.445,-0.345 0.42,-0.377C0.395,-0.409 0.359,-0.425 0.312,-0.425C0.264,-0.425 0.228,-0.409 0.203,-0.377C0.178,-0.345 0.165,-0.303 0.165,-0.251C0.165,-0.2 0.177,-0.158 0.202,-0.126C0.227,-0.094 0.264,-0.078 0.312,-0.078Z" style="fill:#047680;fill-rule:nonzero;"/>
            </g>
            <g transform="matrix(21,0,0,21,215.033,109.524)">
                <path d="M0.299,-0.089C0.323,-0.089 0.344,-0.094 0.362,-0.103C0.38,-0.112 0.394,-0.124 0.405,-0.14C0.415,-0.156 0.423,-0.174 0.428,-0.193C0.433,-0.213 0.435,-0.234 0.435,-0.258C0.435,-0.308 0.424,-0.349 0.401,-0.379C0.378,-0.41 0.346,-0.425 0.303,-0.425C0.259,-0.425 0.225,-0.409 0.201,-0.377C0.177,-0.344 0.165,-0.303 0.165,-0.252C0.165,-0.201 0.176,-0.161 0.199,-0.132C0.222,-0.104 0.255,-0.089 0.299,-0.089ZM0.281,0.202C0.215,0.202 0.151,0.189 0.092,0.162L0.11,0.067C0.163,0.098 0.218,0.113 0.275,0.113C0.325,0.113 0.363,0.101 0.39,0.078C0.417,0.054 0.431,0.018 0.431,-0.029L0.431,-0.076C0.399,-0.029 0.352,-0.006 0.292,-0.006C0.22,-0.006 0.162,-0.028 0.118,-0.072C0.073,-0.117 0.051,-0.176 0.051,-0.251C0.051,-0.288 0.056,-0.322 0.066,-0.354C0.076,-0.385 0.09,-0.413 0.109,-0.437C0.128,-0.461 0.153,-0.479 0.183,-0.493C0.213,-0.507 0.248,-0.514 0.286,-0.514C0.32,-0.514 0.35,-0.507 0.374,-0.493C0.398,-0.479 0.417,-0.461 0.431,-0.439L0.431,-0.501L0.546,-0.501C0.541,-0.45 0.538,-0.398 0.538,-0.346L0.538,-0.072C0.538,-0.043 0.536,-0.016 0.531,0.009C0.527,0.033 0.518,0.058 0.507,0.083C0.495,0.107 0.479,0.128 0.46,0.145C0.442,0.162 0.417,0.176 0.386,0.186C0.356,0.197 0.321,0.202 0.281,0.202Z" style="fill:#047680;fill-rule:nonzero;"/>
            </g>
        </g>
        <g transform="matrix(0.0909219,0,0,-0.0912868,81.5092,122.779)">
            <path d="M16.659,189.604C-5.553,211.816 -5.553,247.83 16.659,270.042C38.871,292.254 74.885,292.254 97.097,270.042C119.309,247.83 119.309,211.816 97.097,189.604C74.885,167.392 38.872,167.392 16.659,189.604ZM56.878,114.912L171.79,0L286.702,114.912L171.79,229.823L56.878,114.912ZM326.921,270.043C304.709,292.255 268.695,292.255 246.483,270.043C224.271,247.831 224.271,211.817 246.483,189.605C268.695,167.393 304.709,167.393 326.921,189.605C349.133,211.817 349.133,247.83 326.921,270.043ZM171.79,459.647L56.878,344.735L171.79,229.823L286.702,344.735L171.79,459.647Z" style="fill:#047680;fill-rule:nonzero;"/>
        </g>
    </g>
</svg>
